<?xml version="1.0" standalone="no"?><svg xmlns="http://www.w3.org/2000/svg" viewBox="0 0 1440 320"><path fill="#e73636" fill-opacity="1" d="M0,288L40,261.3C80,235,160,181,240,149.3C320,117,400,107,480,128C560,149,640,203,720,202.7C800,203,880,149,960,160C1040,171,1120,245,1200,256C1280,267,1360,213,1400,186.7L1440,160L1440,320L1400,320C1360,320,1280,320,1200,320C1120,320,1040,320,960,320C880,320,800,320,720,320C640,320,560,320,480,320C400,320,320,320,240,320C160,320,80,320,40,320L0,320Z"></path></svg>