<?xml version="1.0" standalone="no"?><svg xmlns="http://www.w3.org/2000/svg" viewBox="0 0 1440 320"><path fill="#e73636" fill-opacity="1" d="M0,64L30,64C60,64,120,64,180,80C240,96,300,128,360,160C420,192,480,224,540,218.7C600,213,660,171,720,165.3C780,160,840,192,900,186.7C960,181,1020,139,1080,112C1140,85,1200,75,1260,90.7C1320,107,1380,149,1410,170.7L1440,192L1440,320L1410,320C1380,320,1320,320,1260,320C1200,320,1140,320,1080,320C1020,320,960,320,900,320C840,320,780,320,720,320C660,320,600,320,540,320C480,320,420,320,360,320C300,320,240,320,180,320C120,320,60,320,30,320L0,320Z"></path></svg>