<?xml version="1.0" standalone="no"?><svg xmlns="http://www.w3.org/2000/svg" viewBox="0 0 1440 320"><path fill="#e73636" fill-opacity="1" d="M0,160L40,165.3C80,171,160,181,240,181.3C320,181,400,171,480,186.7C560,203,640,245,720,256C800,267,880,245,960,224C1040,203,1120,181,1200,176C1280,171,1360,181,1400,186.7L1440,192L1440,320L1400,320C1360,320,1280,320,1200,320C1120,320,1040,320,960,320C880,320,800,320,720,320C640,320,560,320,480,320C400,320,320,320,240,320C160,320,80,320,40,320L0,320Z"></path></svg>